<svg id="Icon" xmlns="http://www.w3.org/2000/svg" viewBox="0 0 439.57 439.57"><path id="Green" d="M1228.29,754.41a10.61,10.61,0,0,1-.32,15.3C1125.9,863.59,967,861,868,762.06s-101.53-257.88-7.65-359.95a10.61,10.61,0,0,1,15.3-.32Z" transform="translate(-791.82 -398.69)" style="fill:#155902"/><path id="Red" d="M1177.38,703.5a177.34,177.34,0,1,1-250.8-250.8Z" transform="translate(-791.82 -398.69)" style="fill:#a60303"/><g id="Seeds"><path d="M941.41,529.33c-4.91,10.31-10,11.37-14.56,9.19s-7-6.78-2-17.09,15.24-22.44,19.83-20.25S946.32,519,941.41,529.33Z" transform="translate(-791.82 -398.69)" style="fill:#152b02"/><path d="M936.71,576.63c-4.91,10.31-10,11.37-14.55,9.19s-7-6.78-2-17.09,15.24-22.44,19.82-20.25S941.62,566.32,936.71,576.63Z" transform="translate(-791.82 -398.69)" style="fill:#152b02"/><path d="M973,551.23c-4.91,10.31-10,11.37-14.55,9.19s-7-6.78-2-17.09,15.24-22.44,19.82-20.25S977.91,540.92,973,551.23Z" transform="translate(-791.82 -398.69)" style="fill:#152b02"/><path d="M974.45,605.39c-4.92,10.32-10,11.37-14.56,9.19s-6.95-6.78-2-17.09,15.24-22.44,19.83-20.25S979.36,595.08,974.45,605.39Z" transform="translate(-791.82 -398.69)" style="fill:#152b02"/><path d="M929.67,637.17c-4.91,10.31-10,11.37-14.55,9.18s-7-6.78-2-17.09S928.32,606.83,932.9,609,934.59,626.86,929.67,637.17Z" transform="translate(-791.82 -398.69)" style="fill:#152b02"/><path d="M966.86,671.47c-4.91,10.31-10,11.37-14.55,9.19s-6.95-6.78-2-17.1,15.24-22.43,19.82-20.25S971.78,661.16,966.86,671.47Z" transform="translate(-791.82 -398.69)" style="fill:#152b02"/><path d="M1001.85,632.8c-4.91,10.31-10,11.37-14.55,9.19s-7-6.78-2-17.1,15.24-22.43,19.82-20.25S1006.76,622.49,1001.85,632.8Z" transform="translate(-791.82 -398.69)" style="fill:#152b02"/><path d="M1046.55,615.56c-4.91,10.31-10,11.36-14.56,9.18s-7-6.78-2-17.09,15.25-22.43,19.83-20.25S1051.46,605.24,1046.55,615.56Z" transform="translate(-791.82 -398.69)" style="fill:#152b02"/><path d="M1069.77,728.8c-4.91,10.31-10,11.37-14.56,9.18s-7-6.78-2-17.09,15.25-22.43,19.83-20.25S1074.68,718.48,1069.77,728.8Z" transform="translate(-791.82 -398.69)" style="fill:#152b02"/><path d="M1084.77,659.55c-4.92,10.31-10,11.37-14.56,9.19s-7-6.78-2-17.1,15.24-22.43,19.83-20.25S1089.68,649.24,1084.77,659.55Z" transform="translate(-791.82 -398.69)" style="fill:#152b02"/><path d="M1036.58,672.4c-3.62,7.61-7.36,8.39-10.74,6.78s-5.14-5-1.51-12.62S1035.58,650,1039,651.61,1040.21,664.79,1036.58,672.4Z" transform="translate(-791.82 -398.69)" style="fill:#152b02"/><path d="M999.15,573c-3.62,7.61-7.36,8.39-10.74,6.78s-5.14-5-1.51-12.62,11.25-16.56,14.64-14.95S1002.78,565.4,999.15,573Z" transform="translate(-791.82 -398.69)" style="fill:#152b02"/><path d="M1104.29,709.68c-3.63,7.61-7.36,8.4-10.75,6.78s-5.13-5-1.5-12.61,11.25-16.57,14.64-15S1107.92,702.07,1104.29,709.68Z" transform="translate(-791.82 -398.69)" style="fill:#152b02"/><path d="M1000.45,696.79c-3.63,7.61-7.36,8.39-10.75,6.78s-5.13-5-1.5-12.62,11.25-16.56,14.63-15S1004.08,689.17,1000.45,696.79Z" transform="translate(-791.82 -398.69)" style="fill:#152b02"/><path d="M1039.94,715.54c-3.63,7.61-7.37,8.4-10.75,6.78s-5.13-5-1.51-12.62,11.26-16.56,14.64-15S1043.56,707.93,1039.94,715.54Z" transform="translate(-791.82 -398.69)" style="fill:#152b02"/></g></svg>